<svg width="54" height="54" viewBox="0 0 54 54" fill="none" xmlns="http://www.w3.org/2000/svg">
<path d="M0 27C0 12.0883 12.0883 0 27 0V0C41.9117 0 54 12.0883 54 27V54H27C12.0883 54 0 41.9117 0 27V27Z" fill="url(#paint0_linear_1586_19)"/>
<path d="M21.1694 35.3185C19.8245 35.3185 18.6701 34.9782 17.7063 34.2976C16.748 33.6115 16.0102 32.6232 15.4929 31.3327C14.9811 30.0368 14.7251 28.4768 14.7251 26.6527C14.7306 24.8286 14.9892 23.2768 15.5011 21.9972C16.0183 20.7121 16.7562 19.732 17.7145 19.0568C18.6783 18.3816 19.8299 18.044 21.1694 18.044C22.5089 18.044 23.6605 18.3816 24.6243 19.0568C25.5881 19.732 26.3259 20.7121 26.8377 21.9972C27.355 23.2822 27.6136 24.834 27.6136 26.6527C27.6136 28.4822 27.355 30.045 26.8377 31.3409C26.3259 32.6314 25.5881 33.617 24.6243 34.2976C23.666 34.9782 22.5143 35.3185 21.1694 35.3185ZM21.1694 32.7621C22.2148 32.7621 23.0398 32.2475 23.6442 31.2184C24.254 30.1838 24.5589 28.6619 24.5589 26.6527C24.5589 25.3241 24.4201 24.2079 24.1424 23.304C23.8647 22.4001 23.4727 21.7195 22.9663 21.2621C22.4599 20.7992 21.8609 20.5678 21.1694 20.5678C20.1294 20.5678 19.3072 21.0851 18.7028 22.1197C18.0984 23.1488 17.7934 24.6598 17.788 26.6527C17.7826 27.9867 17.916 29.1084 18.1882 30.0178C18.4659 30.9271 18.858 31.6132 19.3643 32.076C19.8707 32.5334 20.4724 32.7621 21.1694 32.7621ZM37.1309 18.2727V35H34.1008V21.2212H34.0028L30.0905 23.7205V20.9435L34.2478 18.2727H37.1309Z" fill="white"/>
<defs>
<linearGradient id="paint0_linear_1586_19" x1="27" y1="1.35601e-06" x2="72.5" y2="45.5" gradientUnits="userSpaceOnUse">
<stop stop-color="#E239D2"/>
<stop offset="1" stop-color="#FA7F5D"/>
</linearGradient>
</defs>
</svg>
