<svg width="54" height="54" viewBox="0 0 54 54" fill="none" xmlns="http://www.w3.org/2000/svg">
<path d="M0 27C0 12.0883 12.0883 0 27 0V0C41.9117 0 54 12.0883 54 27V54H27C12.0883 54 0 41.9117 0 27V27Z" fill="url(#paint0_linear_1586_20)"/>
<path d="M19.6694 35.3185C18.3245 35.3185 17.1701 34.9782 16.2063 34.2976C15.248 33.6115 14.5102 32.6232 13.9929 31.3327C13.4811 30.0368 13.2251 28.4768 13.2251 26.6527C13.2306 24.8286 13.4892 23.2768 14.0011 21.9972C14.5183 20.7121 15.2562 19.732 16.2145 19.0568C17.1783 18.3816 18.3299 18.044 19.6694 18.044C21.0089 18.044 22.1605 18.3816 23.1243 19.0568C24.0881 19.732 24.8259 20.7121 25.3377 21.9972C25.855 23.2822 26.1136 24.834 26.1136 26.6527C26.1136 28.4822 25.855 30.045 25.3377 31.3409C24.8259 32.6314 24.0881 33.617 23.1243 34.2976C22.166 34.9782 21.0143 35.3185 19.6694 35.3185ZM19.6694 32.7621C20.7148 32.7621 21.5398 32.2475 22.1442 31.2184C22.754 30.1838 23.0589 28.6619 23.0589 26.6527C23.0589 25.3241 22.9201 24.2079 22.6424 23.304C22.3647 22.4001 21.9727 21.7195 21.4663 21.2621C20.9599 20.7992 20.3609 20.5678 19.6694 20.5678C18.6294 20.5678 17.8072 21.0851 17.2028 22.1197C16.5984 23.1488 16.2934 24.6598 16.288 26.6527C16.2826 27.9867 16.416 29.1084 16.6882 30.0178C16.9659 30.9271 17.358 31.6132 17.8643 32.076C18.3707 32.5334 18.9724 32.7621 19.6694 32.7621ZM28.8273 35V32.8111L34.6345 27.1183C35.1899 26.5574 35.6527 26.0592 36.023 25.6236C36.3933 25.188 36.671 24.766 36.8561 24.3576C37.0412 23.9492 37.1338 23.5136 37.1338 23.0508C37.1338 22.5226 37.014 22.0707 36.7744 21.695C36.5348 21.3138 36.2054 21.0198 35.7861 20.8129C35.3669 20.6059 34.8904 20.5025 34.3568 20.5025C33.8068 20.5025 33.325 20.6168 32.9111 20.8455C32.4973 21.0688 32.176 21.3873 31.9474 21.8011C31.7241 22.215 31.6125 22.7077 31.6125 23.2795H28.7293C28.7293 22.2177 28.9716 21.2947 29.4562 20.5107C29.9408 19.7266 30.6079 19.1194 31.4573 18.6893C32.3122 18.2591 33.2923 18.044 34.3976 18.044C35.5193 18.044 36.5049 18.2537 37.3543 18.6729C38.2037 19.0922 38.8626 19.6667 39.3309 20.3963C39.8046 21.1259 40.0415 21.959 40.0415 22.8956C40.0415 23.5218 39.9217 24.1371 39.6821 24.7415C39.4425 25.3459 39.0205 26.0156 38.4161 26.7507C37.8171 27.4858 36.9759 28.3761 35.8923 29.4215L33.0091 32.3537V32.468H40.2947V35H28.8273Z" fill="white"/>
<defs>
<linearGradient id="paint0_linear_1586_20" x1="27" y1="-1.44541e-06" x2="75.5" y2="48.5" gradientUnits="userSpaceOnUse">
<stop stop-color="#128BD0"/>
<stop offset="1" stop-color="#5CF5A9"/>
</linearGradient>
</defs>
</svg>
