<svg width="54" height="54" viewBox="0 0 54 54" fill="none" xmlns="http://www.w3.org/2000/svg">
<path d="M0 27C0 12.0883 12.0883 0 27 0V0C41.9117 0 54 12.0883 54 27V54H27C12.0883 54 0 41.9117 0 27V27Z" fill="url(#paint0_linear_1586_22)"/>
<path d="M19.1694 35.3185C17.8245 35.3185 16.6701 34.9782 15.7063 34.2976C14.748 33.6115 14.0102 32.6232 13.4929 31.3327C12.9811 30.0368 12.7251 28.4768 12.7251 26.6527C12.7306 24.8286 12.9892 23.2768 13.5011 21.9972C14.0183 20.7121 14.7562 19.732 15.7145 19.0568C16.6783 18.3816 17.8299 18.044 19.1694 18.044C20.5089 18.044 21.6605 18.3816 22.6243 19.0568C23.5881 19.732 24.3259 20.7121 24.8377 21.9972C25.355 23.2822 25.6136 24.834 25.6136 26.6527C25.6136 28.4822 25.355 30.045 24.8377 31.3409C24.3259 32.6314 23.5881 33.617 22.6243 34.2976C21.666 34.9782 20.5143 35.3185 19.1694 35.3185ZM19.1694 32.7621C20.2148 32.7621 21.0398 32.2475 21.6442 31.2184C22.254 30.1838 22.5589 28.6619 22.5589 26.6527C22.5589 25.3241 22.4201 24.2079 22.1424 23.304C21.8647 22.4001 21.4727 21.7195 20.9663 21.2621C20.4599 20.7992 19.8609 20.5678 19.1694 20.5678C18.1294 20.5678 17.3072 21.0851 16.7028 22.1197C16.0984 23.1488 15.7934 24.6598 15.788 26.6527C15.7826 27.9867 15.916 29.1084 16.1882 30.0178C16.4659 30.9271 16.858 31.6132 17.3643 32.076C17.8707 32.5334 18.4724 32.7621 19.1694 32.7621ZM34.3305 35.2287C33.1544 35.2287 32.1089 35.0272 31.1942 34.6243C30.2848 34.2214 29.5661 33.6605 29.0379 32.9418C28.5097 32.223 28.2293 31.3926 28.1966 30.4506H31.2677C31.2949 30.9026 31.4446 31.2973 31.7169 31.6349C31.9891 31.9671 32.3512 32.2257 32.8032 32.4109C33.2551 32.596 33.7615 32.6886 34.3224 32.6886C34.9213 32.6886 35.4522 32.5851 35.915 32.3782C36.3779 32.1658 36.74 31.8718 37.0013 31.4961C37.2627 31.1204 37.3907 30.6875 37.3852 30.1974C37.3907 29.6911 37.26 29.2446 36.9932 28.858C36.7264 28.4714 36.3398 28.1692 35.8334 27.9513C35.3324 27.7335 34.728 27.6246 34.0202 27.6246H32.5418V25.2887H34.0202C34.6028 25.2887 35.1119 25.188 35.5475 24.9865C35.9885 24.785 36.3343 24.5019 36.5848 24.1371C36.8353 23.7668 36.9578 23.3394 36.9523 22.8548C36.9578 22.381 36.8516 21.9699 36.6338 21.6214C36.4214 21.2675 36.1192 20.9925 35.7272 20.7965C35.3406 20.6005 34.8859 20.5025 34.3632 20.5025C33.8514 20.5025 33.3776 20.5951 32.942 20.7802C32.5064 20.9653 32.1552 21.2294 31.8884 21.5724C31.6216 21.91 31.48 22.313 31.4637 22.7812H28.5479C28.5696 21.8447 28.8392 21.0225 29.3564 20.3146C29.8792 19.6013 30.5761 19.0459 31.4474 18.6484C32.3186 18.2455 33.296 18.044 34.3795 18.044C35.4958 18.044 36.465 18.2537 37.2872 18.6729C38.1148 19.0868 38.7546 19.6449 39.2066 20.3473C39.6585 21.0497 39.8845 21.8256 39.8845 22.6751C39.8899 23.6171 39.6122 24.4066 39.0514 25.0437C38.496 25.6808 37.7664 26.0973 36.8625 26.2933V26.424C38.0386 26.5874 38.9398 27.023 39.566 27.7308C40.1976 28.4332 40.5107 29.3072 40.5052 30.3526C40.5052 31.2892 40.2384 32.1277 39.7048 32.8683C39.1766 33.6033 38.447 34.1805 37.5159 34.5998C36.5902 35.0191 35.5284 35.2287 34.3305 35.2287Z" fill="white"/>
<defs>
<linearGradient id="paint0_linear_1586_22" x1="27" y1="-1.40071e-06" x2="74" y2="47" gradientUnits="userSpaceOnUse">
<stop stop-color="#FEB60B"/>
<stop offset="1" stop-color="#FF325A"/>
</linearGradient>
</defs>
</svg>
