<svg width="54" height="54" viewBox="0 0 54 54" fill="none" xmlns="http://www.w3.org/2000/svg">
<path d="M0 27C0 12.0883 12.0883 0 27 0V0C41.9117 0 54 12.0883 54 27V54H27C12.0883 54 0 41.9117 0 27V27Z" fill="url(#paint0_linear_1586_24)"/>
<path d="M19.1694 35.3185C17.8245 35.3185 16.6701 34.9782 15.7063 34.2976C14.748 33.6115 14.0102 32.6232 13.4929 31.3327C12.9811 30.0368 12.7251 28.4768 12.7251 26.6527C12.7306 24.8286 12.9892 23.2768 13.5011 21.9972C14.0183 20.7121 14.7562 19.732 15.7145 19.0568C16.6783 18.3816 17.8299 18.044 19.1694 18.044C20.5089 18.044 21.6605 18.3816 22.6243 19.0568C23.5881 19.732 24.3259 20.7121 24.8377 21.9972C25.355 23.2822 25.6136 24.834 25.6136 26.6527C25.6136 28.4822 25.355 30.045 24.8377 31.3409C24.3259 32.6314 23.5881 33.617 22.6243 34.2976C21.666 34.9782 20.5143 35.3185 19.1694 35.3185ZM19.1694 32.7621C20.2148 32.7621 21.0398 32.2475 21.6442 31.2184C22.254 30.1838 22.5589 28.6619 22.5589 26.6527C22.5589 25.3241 22.4201 24.2079 22.1424 23.304C21.8647 22.4001 21.4727 21.7195 20.9663 21.2621C20.4599 20.7992 19.8609 20.5678 19.1694 20.5678C18.1294 20.5678 17.3072 21.0851 16.7028 22.1197C16.0984 23.1488 15.7934 24.6598 15.788 26.6527C15.7826 27.9867 15.916 29.1084 16.1882 30.0178C16.4659 30.9271 16.858 31.6132 17.3643 32.076C17.8707 32.5334 18.4724 32.7621 19.1694 32.7621ZM28.0251 31.8963V29.4869L35.1228 18.2727H37.132V21.7031H35.9069L31.1288 29.2745V29.4052H41.0361V31.8963H28.0251ZM36.0049 35V31.1612L36.0376 30.0831V18.2727H38.8962V35H36.0049Z" fill="white"/>
<defs>
<linearGradient id="paint0_linear_1586_24" x1="27" y1="-1.19209e-06" x2="67" y2="40" gradientUnits="userSpaceOnUse">
<stop stop-color="#67A500"/>
<stop offset="1" stop-color="#EFF547"/>
</linearGradient>
</defs>
</svg>
